<svg preserveAspectRatio="none" overflow="visible" style="display: block;" width="32" height="32" viewBox="0 0 32 32" fill="none" xmlns="http://www.w3.org/2000/svg">
<g id="ticket">
<path id="Vector" d="M26 16.6667C26 14.8267 27.4933 13.3333 29.3333 13.3333V12C29.3333 6.66667 28 5.33333 22.6667 5.33333H9.33333C4 5.33333 2.66667 6.66667 2.66667 12V12.6667C4.50667 12.6667 6 14.16 6 16C6 17.84 4.50667 19.3333 2.66667 19.3333V20C2.66667 25.3333 4 26.6667 9.33333 26.6667H22.6667C28 26.6667 29.3333 25.3333 29.3333 20C27.4933 20 26 18.5067 26 16.6667Z" stroke="#00CE8B" stroke-width="2.02084" stroke-linecap="round" stroke-linejoin="round"/>
<path id="Vector_2" d="M13.3333 5.33333L13.3333 26.6667" stroke="#111317" stroke-width="2.02084" stroke-linecap="round" stroke-linejoin="round" stroke-dasharray="6.74 6.74"/>
<g id="Vector_3" opacity="0">
</g>
</g>
</svg>
